<?xml version="1.0" encoding="UTF-8"?>
<!DOCTYPE svg PUBLIC "-//W3C//DTD SVG 1.1//EN" "http://www.w3.org/Graphics/SVG/1.1/DTD/svg11.dtd">
<?xml-stylesheet href="/css/svg-siteplan.css" type="text/css"?>
<svg xmlns="http://www.w3.org/2000/svg" xmlns:xlink="http://www.w3.org/1999/xlink" xmlns:data="plan-data" xml:space="preserve" width="504" height="432" shape-rendering="geometricPrecision" text-rendering="geometricPrecision" image-rendering="optimizeQuality" fill-rule="evenodd" clip-rule="evenodd" viewBox="0 0 508 442" data:id="1752">
  <g id="Ground">
    <path class="sidewalk" fill="#CCCCCC" d="M107.82 264.27l8.15-91.87c1.21-13.65 9.58-26 22.08-31.62l5.04-2.27c1.25-0.56 3.11 0.73 3.57 2.01l4.86 13.36 116.94-45.47-5.23-12.35c-0.71-1.67-0.38-4.3 1.13-5.31l2.03-1.35c1.52-1.01 3.87 0.65 5.08 2.01l12.48 14.06c2.92 3.29 7.26 5.9 11.65 6.21l57.85 4.11c1.88 0.13 3.92 2.31 3.79 4.18l-0.28 3.82c-0.08 1.13-1.27 2.49-2.4 2.4l-18.74-1.51-6.95 83.62 14.28 1.45c4.29 0.44 4.35-0.3 3.95 4.03-1.06 11.47-2.06 21.91-2.58 29.72l-0.19 2.81c-0.14 2.16-0.85 4.6-2.51 5.99l-1.92 1.62c-1.74 1.46-5.1 0.16-6.64-1.51l-7.72-8.36-26.94 22.27 8.17 8.85c1.23 1.33 2.14 4.15 0.8 5.37l-1.95 1.78c-1.56 1.43-4.01 1.95-6.12 1.72l-6.16-0.68c-1.81-0.2-3.27-2.71-3.07-4.52l1.41-12.71-155.11-14.03-1.62 15.52c-0.11 1.08-1.27 2.35-2.35 2.24l-22.83-2.39c-1.24-0.13-2.05-1.96-1.94-3.2z"/>
    <path class="unowned-land" fill="#EBF5EB" d="M508.05 146.3l-18.27 183.02c-1.71 17.11 5.92 36.24 18.27 51.82l0-234.84zm-394.03-128.01l11.76 30.26 109.76-41.06 198.44 13.45c2.55-3.15 4.3-6.74 4.71-10.37l1.19-10.57-303.37 0-15.87 7.12c-3.94 1.77-8.17 7.13-6.61 11.16zm-19.04 9.13l10.92 28.56-66.51 24.88-20.21 286.74 381.08 1.5 28.43-290.54c1.93 4.22 2.9 8.65 2.52 12.84l-24.39 266.82c-1.93 21.09-23.22 45.31-44.4 45.45l-362.39 2.42 0-346.06 83.52-36.57c5.62-2.46 10.4 1.23 11.45 3.97zm-94.97-0.36l66.47-27.06-66.47 0 0 27.06z"/>
    <path class="land" fill="#99CC99" d="M125.77 48.54l15.38 39.6c1.8 4.64 8.24 8.46 13.06 7.23l3.14-0.8c1.95-0.5 4.28-2.84 3.71-4.78l-4.11-14.12 100.29-26.19 3.01 12.91c0.24 1.05 1.54 2.03 2.61 1.9l2.68-0.31c1.49-0.17 2.96-1.48 3.43-2.9l0.99-2.99c7.72-23.4 41.95-34.09 66.51-32.24l75.91 5.74c7.55 0.57 16.31-4.12 21.6-10.65l-198.44-13.45-109.76 41.06zm-106.6 319.06l20.21-286.74 66.51-24.88 12.72 33.27c1.69 4.42 0.62 10.69-2.84 13.92l-8.76 8.18c-1.5 1.4-3.83 1.99-5.87 1.83l-27.25-2.06-1.5 21.24 8.19 0.57c2.75 0.19 5.25 4.96 3.83 7.32l-3.4 5.66c-0.9 1.49-3.08 2.2-4.81 2.05l-17.28-1.56-11.97 142.95 14.88 1.32c1.01 0.09 1.84 1.49 1.74 2.51l-1.27 13.38 249.97 20.21 1.18-13.5c0.17-1.92 2.97-5.34 4.27-3.91l10.63 11.61 43.78-40.23-10.09-11.45c-1.34-1.52 1.36-5.27 3.38-5.06l16.63 1.72 15.9-168.02-14.27-1.84c-1.7-0.22-2.89-2.66-2.71-4.37l1.64-15.68-73.16-7.48-1.93 15.75c-0.22 1.78-2.52 3.64-4.27 3.26l-4.13-0.89c-4.33-0.94-5.08-8.21-4.29-12.57l0.94-5.21c2.39-13.25 23.49-18.77 36.89-17.56l69.76 6.32c10.53 0.95 21.41 10.28 26.25 20.9l-28.43 290.54-381.07-1.5zm316.9-244.79l18.56 1.55c0.2-0.1 0.49-0.5 0.51-0.69l0.28-3.82c0.06-0.86-1.24-2.15-2.08-2.21l-16.72-1.23-0.54 6.41zm-42.55 143.4l-1.43 12.84c-0.08 0.73 0.66 2.4 1.45 2.49l6.16 0.68c1.54 0.17 3.5-0.17 4.68-1.25l1.95-1.78c0.2-0.26-0.07-1.23-0.17-1.5-0.16-0.44-0.42-0.92-0.74-1.27l-9.25-10.02-2.65-0.19zm33.33-23.45l7.77 8.41c0.44 0.48 1.07 0.88 1.66 1.14 0.55 0.25 1.89 0.67 2.44 0.21l1.92-1.62c1.26-1.06 1.75-3.13 1.86-4.71l0.13-2-15.79-1.44 0 0.01zm-235.65 21.09l8.57-94.1c1.78-19.52 7.96-25.25 14.42-31.24 0.73-0.67 1.3-1.57 2.18-2.05 1.54-0.83 1.3-1.04 2.62-0.33l1.22 1.17c0.63 1.33 0.69 1.29-0.15 2.23-0.74 0.84-1.75 1.67-2.61 2.47-5.78 5.36-11.32 10.49-12.93 28.17l-8.56 93.97c-0.1 1.15-1.37 2.44-2.52 2.37-1.16-0.07-2.35-1.51-2.24-2.67zm61.28-107.73l95.23-37.61-4.3 47.9-91.31-6.74 0.37-3.55z"/>
  </g>
  <g id="Buildings">
    <polygon class="building" fill="black" stroke="black" stroke-width="0.21" points="320.37 178.73 325.79 179.21 321.6 232.09 292.98 255.1 137.96 242 137.59 246.02 126.46 244.99 125.99 249.39 112.14 248.08 114.76 216.84 111.86 216.37 112.89 205.98 115.6 206.27 118.88 170.06 142.32 172.03 143.07 163.57 249.01 172.4 253.87 117.45 265.83 118.2 265.45 123.89 307.96 127.26 308.7 120.16 331.03 121.93 328.88 144.82 323.47 144.52 "/>
  </g>
  <g id="Spaces">
    <polygon id="hallway" class="space" fill="#EEEEEE" points="250.68 174.37 250.68 174.39 144.41 165.47 143.81 172.43 290.21 184.83 290.81 177.76 "/>
    <polygon id="s1763" class="space" fill="#EEEEEE" points="327.21 142.89 329.02 123.62 310.34 122.13 309.6 129.23 263.5 125.58 263.87 119.92 255.54 119.4 253.07 147.33 320.84 153.06 321.8 142.59 "/>
    <polygon id="s1762" class="space" fill="#EEEEEE" points="252.94 148.82 250.81 172.88 318.47 178.59 320.7 154.55 "/>
    <polygon id="s1761" class="space" fill="#EEEEEE" points="285.99 252.66 292.4 253.2 319.83 231.15 323.89 180.66 318.33 180.14 318.33 180.08 292.3 177.88 "/>
    <polygon id="s1760" fill="#EEEEEE" points="253.12 249.88 284.49 252.54 290.09 186.32 258.71 183.67 "/>
    <polygon id="s1757" class="space" fill="#EEEEEE" points="202.4 245.6 251.63 249.76 257.22 183.55 208 179.4 "/>
    <polygon id="s1756" class="space" fill="#EEEEEE" points="178.01 243.54 200.91 245.47 206.51 179.27 183.6 177.34 "/>
    <polygon id="s1755" class="space" fill="#EEEEEE" points="161.09 242.11 176.52 243.41 182.11 177.22 166.68 175.92 "/>
    <polygon id="s1754" class="space" fill="#EEEEEE" points="144.12 173.99 143.65 173.95 138.06 240.16 159.59 241.98 165.19 175.79 144.12 174.01 "/>
    <polygon id="s1753" class="space" fill="#EEEEEE" points="142.16 173.82 120.54 172.04 117.27 208.29 114.54 208 113.86 214.83 116.74 215.29 114.13 246.42 124.35 247.39 124.82 243 135.93 244.02 136.3 240.01 136.57 240.04 "/>
  </g>
  <g id="Text">
    <rect id="legend" fill="#FFFFFF" stroke="#99CC99" stroke-width="1.92" x="382.35" y="383.59" width="113.04" height="48.09"/>
    <text x="409.61" y="400.43" fill="black" font-weight="bold" font-size="10.54" font-family="Arial">
      Space Available
    </text>
    <text x="409.61" y="421.77" fill="black" font-weight="bold" font-size="10.54" font-family="Arial">
      Occupied
    </text>
    <rect id="avail" fill="#FEFDA0" x="388.24" y="388.88" width="15.04" height="15.04"/>
    <rect id="occ" fill="#EEEEEE" x="388.39" y="409.97" width="15.04" height="15.04"/>
    <text x="175.06" y="427.59" fill="black" font-weight="bold" font-size="10.54" font-family="Arial">
      Glenside Drive
    </text>
    <g transform="matrix(0.106301 -0.994334 0.994334 0.106301 212.791 484.177)">
      <text x="252" y="220.11" fill="black" font-weight="bold" font-size="10.54" font-family="Arial">
        Forest Avenue
      </text>
    </g>
  </g>
  <g id="Infobox" style="opacity: 0">  
	  <polygon id="shadow"  style="opacity: .25" fill="#333333" points="166.747,286.708 367.765,286.708 367.765,347.853 166.747,347.853 "/>
	  <rect id="box" fill="white" stroke="#99CC99" stroke-width="1.91608" x="160.06" y="280.393" width="201.018" height="61.1455"/>
	  <text x="260.5" y="330.112" id="info2" fill="black" font-weight="normal" font-size="8.62183" font-family="Arial" text-anchor="middle">info 2</text>
	  <text x="260.5" y="316.656" id="info1" fill="black" font-weight="normal" font-size="11.4957" font-family="Arial" text-anchor="middle">info 1</text>
	  <text x="260.5" y="301.541" id="title" fill="black" font-weight="bold" font-size="13.4115" font-family="Arial" text-anchor="middle">Title</text>
 </g>
  <script xlink:href="/js/svg-siteplan.js" />
</svg>
