<?xml version="1.0" encoding="UTF-8"?>
<!DOCTYPE svg PUBLIC "-//W3C//DTD SVG 1.1//EN" "http://www.w3.org/Graphics/SVG/1.1/DTD/svg11.dtd">
<?xml-stylesheet href="/css/svg-siteplan.css" type="text/css"?>
<svg xmlns="http://www.w3.org/2000/svg" xml:space="preserve" width="504px" height="432px" shape-rendering="geometricPrecision" text-rendering="geometricPrecision" image-rendering="optimizeQuality" fill-rule="evenodd" clip-rule="evenodd"
viewBox="0 0 508 442" xmlns:xlink="http://www.w3.org/1999/xlink">
 <g id="Ground">
  <path id="sidewalk" fill="#CCCCCC" d="M107.823 264.273l8.15449 -91.8734c1.21113,-13.6464 9.58368,-25.9983 22.0779,-31.62l5.04112 -2.26829c1.24616,-0.560759 3.10658,0.726135 3.57365,2.01031l4.85647 13.355 116.938 -45.4654 -5.23148 -12.3516c-0.705225,-1.66544 -0.375559,-4.3044 1.12966,-5.30779l2.02932 -1.35288c1.51636,-1.01099 3.87399,0.6501 5.08349,2.01303l12.4763 14.064c2.91975,3.29096 7.26026,5.89598 11.6491,6.20745l57.8515 4.10969c1.87617,0.133061 3.92477,2.30576 3.78872,4.18111l-0.278071 3.82321c-0.0817377,1.12749 -1.2725,2.48852 -2.39918,2.39782l-18.7432 -1.50631 -6.95286 83.616 14.275 1.45363c4.28865,0.436387 4.34649,-0.300338 3.94758,4.02796 -1.06015,11.4742 -2.05621,21.9122 -2.57623,29.7172l-0.187101 2.80651c-0.143652,2.16048 -0.853765,4.59849 -2.5097,5.99292l-1.92423 1.62063c-1.7355,1.46177 -5.09924,0.158859 -6.63949,-1.50794l-7.72353 -8.3568 -26.9425 22.265 8.17024 8.85102c1.22824,1.33007 2.13523,4.15233 0.799183,5.37351l-1.95111 1.78357c-1.56334,1.42919 -4.01411,1.95464 -6.11946,1.72056l-6.16047 -0.684587c-1.81072,-0.201221 -3.27494,-2.70929 -3.07372,-4.52001l1.41262 -12.7112 -155.106 -14.0325 -1.61656 15.5171c-0.11188,1.07535 -1.27196,2.35464 -2.34731,2.24195l-22.8303 -2.39049c-1.24019,-0.129803 -2.05159,-1.95736 -1.94134,-3.19999z"/>
  <path id="unowned-land" fill="#EBF5EB" d="M508.046 146.296l-18.2707 183.016c-1.70807,17.1092 5.91851,36.2432 18.2707,51.8201l0 -234.836zm-394.035 -128.012l11.7558 30.2595 109.762 -41.0562 198.436 13.4533c2.55315,-3.15328 4.29815,-6.73698 4.7063,-10.3677l1.18859 -10.5724 -303.369 0 -15.8739 7.12448c-3.9435,1.76972 -8.17105,7.13019 -6.60582,11.159zm-19.0419 9.13317l10.9167 28.5626 -66.5092 24.8776 -20.2142 286.742 381.075 1.49735 28.4284 -290.536c1.9264,4.22239 2.89992,8.64872 2.5173,12.8355l-24.3939 266.815c-1.92803,21.0913 -23.2195,45.312 -44.3982,45.4532l-362.391 2.4228 0 -346.062 83.5207 -36.5742c5.61818,-2.46028 10.4016,1.22688 11.4484,3.9655zm-94.9691 -0.356007l66.4685 -27.0606 -66.4685 0 0 27.0606z"/>
  <path id="owned-land" fill="#99CC99" d="M125.767 48.543l15.383 39.5958c1.80149,4.63705 8.23921,8.45836 13.0598,7.22686l3.13808 -0.801627c1.95464,-0.499387 4.27561,-2.84317 3.71214,-4.78043l-4.10698 -14.1151 100.286 -26.1941 3.00719 12.9127c0.244127,1.04765 1.53808,2.02796 2.60692,1.90332l2.67508 -0.311744c1.4873,-0.173251 2.95749,-1.48268 3.42674,-2.90481l0.98737 -2.99225c7.72055,-23.3973 41.9464,-34.0941 66.5141,-32.2359l75.9115 5.74228c7.54757,0.570806 16.3082,-4.11513 21.5975,-10.6479l-198.436 -13.4533 -109.762 41.0562zm-106.604 319.056l20.2142 -286.742 66.5092 -24.8776 12.7174 33.2738c1.69042,4.4228 0.624031,10.6884 -2.83611,13.9204l-8.76277 8.1849c-1.49789,1.39932 -3.82782,1.98506 -5.87181,1.83027l-27.2512 -2.06435 -1.49789 21.2358 8.18952 0.571892c2.74731,0.191445 5.24832,4.96074 3.82999,7.32055l-3.40067 5.65701c-0.898028,1.49409 -3.07698,2.20447 -4.81329,2.04724l-17.2768 -1.56415 -11.9744 142.945 14.8768 1.3222c1.01344,0.0898843 1.83652,1.49436 1.74039,2.50671l-1.27494 13.3843 249.966 20.2069 1.18397 -13.4989c0.168906,-1.92423 2.96863,-5.33848 4.2729,-3.91418l10.6338 11.613 43.7815 -40.2266 -10.092 -11.4457c-1.3412,-1.52124 1.36239,-5.26896 3.37976,-5.05986l16.6286 1.72464 15.9035 -168.016 -14.2718 -1.84168c-1.69993,-0.219415 -2.89205,-2.66313 -2.71337,-4.36767l1.6429 -15.6814 -73.1563 -7.48402 -1.93238 15.7547c-0.217786,1.77705 -2.51839,3.64154 -4.26828,3.26299l-4.12544 -0.892054c-4.32694,-0.935774 -5.07887,-8.2145 -4.29327,-12.5724l0.939576 -5.21166c2.38859,-13.2497 23.4861,-18.7722 36.8947,-17.5576l69.7608 6.32123c10.53,0.953968 21.406,10.2783 26.2503,20.8963l-28.4284 290.536 -381.075 -1.49735zm316.895 -244.793l18.5612 1.54813c0.200135,-0.10482 0.489611,-0.497487 0.509978,-0.69029l0.278071 -3.82293c0.0624574,-0.862726 -1.24073,-2.15369 -2.08472,-2.21343l-16.7212 -1.22715 -0.543379 6.40568zm-42.5498 143.402l-1.42729 12.8434c-0.0814661,0.731023 0.662863,2.40162 1.44874,2.48879l6.16047 0.684587c1.53917,0.17135 3.49951,-0.174881 4.67534,-1.24996l1.94976 -1.78221c0.19742,-0.262592 -0.0662591,-1.22905 -0.16782,-1.50115 -0.162389,-0.435844 -0.422809,-0.924641 -0.740527,-1.2687l-9.25021 -10.0209 -2.64846 -0.193889zm33.3286 -23.4454l7.76807 8.40513c0.440189,0.476577 1.074,0.876847 1.66327,1.13917 0.554513,0.247114 1.89327,0.671552 2.44073,0.210454l1.92423 -1.6209c1.25811,-1.05933 1.75451,-3.13183 1.85933,-4.7082l0.133604 -2.00352 -15.7857 -1.43516 -0.0035302 0.0130346zm-235.652 21.0894l8.57132 -94.0996c1.77732,-19.5152 7.96331,-25.2515 14.4241,-31.2423 0.726949,-0.673996 1.29803,-1.5704 2.17678,-2.04697 1.53618,-0.833399 1.2983,-1.03679 2.62294,-0.331296l1.21873 1.17257c0.625388,1.32708 0.685945,1.2926 -0.147997,2.23136 -0.7446,0.838286 -1.74935,1.6706 -2.61452,2.47304 -5.78138,5.36074 -11.317,10.4942 -12.9273,28.1737l-8.5591 93.9671c-0.104277,1.14894 -1.37243,2.44154 -2.52382,2.36958 -1.15872,-0.0725049 -2.3465,-1.51065 -2.24113,-2.6672zm61.2777 -107.73l95.2342 -37.6072 -4.30331 47.8977 -91.3051 -6.73562 0.374201 -3.55491z"/>
 </g>
 <g id="Buildings">
  <polygon id="building1" fill="black" stroke="black" stroke-width="0.206924" points="320.366,178.727 325.792,179.214 321.601,232.085 292.975,255.098 137.962,241.999 137.588,246.021 126.457,244.993 125.988,249.391 112.143,248.082 114.763,216.835 111.861,216.368 112.89,205.984 115.603,206.265 118.876,170.06 142.324,172.025 143.075,163.569 249.006,172.399 253.868,117.448 265.825,118.195 265.452,123.893 307.955,127.256 308.703,120.157 331.028,121.931 328.879,144.818 323.472,144.521 "/>
 </g>
 <g id="Spaces">
  <polygon id="hallway" fill="#EEEEEE" points="250.679,174.366 250.677,174.385 144.406,165.473 143.812,172.434 290.214,184.826 290.812,177.756 "/>
  <polygon id="s1763" class="space" fill="#EEEEEE" points="327.213,142.885 329.023,123.617 310.344,122.132 309.597,129.231 263.498,125.584 263.869,119.915 255.542,119.395 253.071,147.333 320.836,153.058 321.804,142.588 "/>
  <polygon id="s1762" class="space available" fill="#EEEEEE" points="252.939,148.823 250.811,172.875 318.473,178.592 320.698,154.547 "/>
  <polygon id="s1761" class="space" fill="#EEEEEE" points="285.985,252.662 292.396,253.203 319.83,231.148 323.893,180.662 318.331,180.135 318.335,180.082 292.302,177.882 "/>
  <polygon id="s1760" class="space" fill="#EEEEEE" points="253.118,249.884 284.494,252.536 290.088,186.317 258.712,183.672 "/>
  <polygon id="s1757" class="space" fill="#EEEEEE" points="202.403,245.598 251.627,249.758 257.221,183.547 207.996,179.398 "/>
  <polygon id="s1756" class="space" fill="#EEEEEE" points="178.011,243.537 200.912,245.473 206.505,179.272 183.603,177.342 "/>
  <polygon id="s1755" class="space" fill="#EEEEEE" points="161.085,242.107 176.52,243.411 182.113,177.216 166.677,175.915 "/>
  <polygon id="s1754" class="space" fill="#EEEEEE" points="144.123,173.985 143.65,173.946 138.055,240.161 159.594,241.981 165.186,175.79 144.12,174.014 "/>
  <polygon id="s1753" class="space" fill="#EEEEEE" points="142.158,173.823 120.544,172.043 117.267,208.286 114.538,208.003 113.862,214.827 116.738,215.291 114.128,246.422 124.352,247.389 124.82,242.995 135.927,244.021 136.3,240.013 136.565,240.035 "/>
 </g>
 <g id="Text">
  <rect id="legend" fill="#FFFFFF" stroke="#99CC99" stroke-width="1.91608" x="382.347" y="383.588" width="113.038" height="48.0905"/>
  <text x="409.612" y="400.43"  fill="black" font-weight="bold" font-size="10.5376" font-family="Arial">Space Available</text>
  <text x="409.612" y="421.771"  fill="black" font-weight="bold" font-size="10.5376" font-family="Arial">Occupied</text>
  <rect id="legend-avail" fill="#FEFDA0" x="388.239" y="388.883" width="15.0405" height="15.0405"/>
  <rect id="legend-occ" fill="#EEEEEE" x="388.394" y="409.97" width="15.0405" height="15.0405"/>
  <text x="175.06" y="427.589"  fill="black" font-weight="bold" font-size="10.5376" font-family="Arial">Glenside Drive</text>
  <g transform="matrix(0.106301 -0.994334 0.994334 0.106301 212.791 484.177)">
   <text x="252" y="220.11"  fill="black" font-weight="bold" font-size="10.5376" font-family="Arial">Forest Avenue</text>
  </g>
 </g>
</svg>
